<?xml version="1.0" encoding="UTF-8"?><svg id="Layer_1" xmlns="http://www.w3.org/2000/svg" viewBox="0 0 114.55 95.08"><defs><style>.cls-1{fill:#e65100;}.cls-2{fill:#ff9473;}</style></defs><path class="cls-1" d="M28.84,17.57c-.41-.89,1.7-2.46,1.09-4.34-.23-.71-.75-1.15-.83-1.21-1.04-.85-1.98-.2-3.57-.89-.46-.2-1.53-.67-1.91-1.72-.3-.82-.06-1.66.05-2.06.12-.41.36-1.03.52-1,.24.04-.23,1.52.57,2.49.38.46.91.63,1.34.77,1.01.32,1.39-.01,2.49.26.37.09.92.22,1.47.64,1.17.89,1.37,2.35,1.4,2.62.14,1.06-.18,1.71,0,1.79.18.07.6-.52,1.91-2.68,1.47-2.43,1.6-2.77,2.23-3.38.49-.47.34-.2,2.17-1.6,1.73-1.32,2.14-1.77,2.36-2.04.82-.98.58-1.16,1.28-1.91,1.09-1.17,2.46-1.59,3-1.72,1.34-.33,1.34.16,2.94-.19.66-.15,1.4-.4,2.87-.89.59-.2.87-.3,1.34-.38.33-.06,1.04-.15,2.04,0,1.18.17,1.34.46,3,.96,1.25.37,1.87.56,2.43.51,1.06-.1,1.29-.6,2.94-1.09.37-.11,1.04-.31,1.91-.38.53-.05,2.18-.17,3.96.57.72.3.6.39,1.79.96.3.15,1.19.56,2.36.96,1.31.44,1.57.38,4.21,1.02,2.05.5,2.51.68,2.94,1.15.29.32.51.83.96,1.85.62,1.43.55,1.61.89,2.23.53.98.9.9,2.23,2.3,1.14,1.19,1.82,1.91,2.17,3.06.36,1.22.16,2.27.06,2.74-.17.81-.48,2.33-1.47,2.87-1.46.8-3.14-1.17-6.32-2.11-2.25-.66-4.09,1.11-6.69,1.4-6.19.69-11.81,1.32-16.15,1.34-9.81.04-10.12-4.6-17.82-3.38-3.03.48-7.62,1.7-8.17.51Z"/><path class="cls-1" d="M58.36,19.72c.79-.94,1.45-1.73,2.64-2.3,1.52-.74,3.3-.64,6.81-.43,1.71.11,1.49.16,3.06.26,3.71.21,3.88-.17,6.13.09,2.4.27,2.12.7,5.45,1.19,2.23.33,2.65.18,3.74.68.4.18.4.23,3.4,2.3,1.31.9,1.6,1.1,2.04,1.36,1.29.78,1.43.71,2.47,1.36.78.49,1.67,1.05,2.55,2.04.48.54.85.95,1.11,1.62.36.94.05,1.17.34,2.3.17.63.27.58,1.11,2.38.47,1.02.71,1.54.77,1.87.2,1.19-.34,1.49-.26,2.64.08,1.07.61,1.82,1.19,2.64.6.84.83.85,2.38,2.38,1.21,1.19,1.97,2.08,2.3,2.47,1,1.19,1.51,1.79,1.79,2.47.6,1.46.45,2.82.34,3.66-.16,1.28-.42,1.21-.94,3.15-.74,2.8-.2,2.98-.94,4.6-.46,1.02-.92,1.47-.85,2.38.05.66.37,1.59,1.02,1.79.5.15,1.1-.24,2.3-1.02.67-.44.65-.5,1.11-.77.87-.5,1.75-1.01,2.47-.68.7.32,1.03,1.35.94,2.13-.11.9-.78,1.29-.6,1.62.29.52,2.12-.22,2.3.17.13.27-.58.95-1.36,1.28-.12.05-1.51.61-2.13,0-.59-.58.08-1.68-.43-2.04-.42-.3-1.39.09-1.96.68-.68.71-.48,1.39-1.11,1.79-.44.28-.91.17-1.53.09-2.36-.31-2.72.35-3.74,0-2.16-.73-2.74-4.38-2.89-5.36-.26-1.61-.03-2.4.17-5.02.4-5.22.46-5.73.17-6.55-.7-2-2.3-2.55-5.11-4.43-6.5-4.35-5.65-6.61-10.47-9.02-3.69-1.85-3.57-.22-9.36-2.3-6.25-2.25-6.59-4.22-11.57-5.19-4.33-.84-6.64.15-7.49-1.36-1.25-2.21,2.38-6.59,2.64-6.89Z"/><path class="cls-2" d="M56.28,21.97c1.17-.26,1.57.84,5.53,2.38,1.63.63,2.93.98,3.74,1.19.88.23,3.33.84,6.55,1.11,2.78.23,4.18.35,5.79.17.41-.05,1.23-.15,2.3,0,.81.12,1.43.33,2.38.68,1.47.53,1.61.74,2.64,1.02,1.12.3,1.05.08,2.04.34,0,0,.89.24,3.49,1.7.98.68,1.37,1.37,1.53,1.87.2.6.06.83.34,1.36.46.84,1.11.78,1.36,1.45.17.45,0,.9-.34,1.79-.62,1.6-1.17,1.79-1.11,2.47.05.56.6,1,1.7,1.87,1.3,1.03,1.99,1.58,3.06,1.79.45.09.99.12,1.62.51.21.13.56.35.85.77.41.59.26.92.6,1.36.32.41.6.31,1.28.68.09.05,1.67.94,2.04,2.55.03.11.05.39.09.94.08,1.11.12,1.67,0,2.21-.12.56-.25.42-.68,1.45-.31.73-.68,1.62-.68,2.72,0,.43.05.34.09,1.11.03.74.05,1.32-.09,1.96-.18.85-.43.78-.6,1.53-.03.14-.25,1.17.17,2.21.38.96.86.83,1.53,1.87.22.35.99,1.64.77,3.15-.08.55-.37,1.05-.94,2.04-.86,1.51-1.29,2.26-2.04,2.81-1.06.77-1.73.55-2.21,1.36-.34.57-.06.78-.43,1.62-.47,1.09-1.11,1.15-1.19,1.87-.09.72.52.87.77,1.79.34,1.29-.38,2.75-1.19,3.57-.75.77-1.12.5-2.47,1.53-1.01.77-1.03,1.09-1.79,1.7-.94.76-3.01,1.97-4.17,1.36-1.7-.89-.95-5.43-.68-7.06.46-2.77,1.08-3.11,1.53-6.47.35-2.6.17-3.84,0-4.6-.36-1.65-.81-1.67-1.11-3.23-.3-1.59-.1-2.86.26-5.02.43-2.66.84-3.01.6-4.26-.16-.84-.65-1.59-1.62-3.06-2.13-3.25-2.79-3.28-3.15-4.68-.53-2.06.74-2.64.26-4.43-.64-2.33-3.38-3.49-5.19-4.26-3.01-1.27-4.48-.88-8.51-1.7-4.62-.94-4.45-2.08-6.98-2.13-4.29-.08-5.74,2.6-8,1.62-2.53-1.11-2.85-5.41-2.98-7.06-.29-3.86.86-9.01,3.23-9.53Z"/><path class="cls-1" d="M30.51,18.04c.46-.11,2.82-1.15,3.91-1.47,1.56-.46,2.34-.69,2.81-.77,1.55-.26,1.7.05,4.09-.13,1.3-.1,1.4-.2,2.68-.26,1.35-.06,2.04-.08,2.81.13,1.24.34,1.33.87,2.55,1.4.88.39,1.07.22,3.83.51,3.13.33,4.06.66,4.6.89,1.03.44,1.71.73,2.17,1.4,1.08,1.57.37,4.29-.89,5.87-1.06,1.33-2.64,2.03-10.6,2.68-7.68.63-8.87.19-12.13,1.28-2.19.73-5.1,1.7-7.4,4.34-2.36,2.7-1.47,4.15-4.21,8.94-1.58,2.75-3.11,4.43-5.23,6.77-2.93,3.22-5.63,6.18-7.4,5.49-.68-.27-1.05-1.2-1.79-3.06-.41-1.04-1.05-2.69-1.15-4.98-.06-1.44-.16-3.6,1.02-5.87.31-.59,1.21-2.32,3.06-3.57,1.02-.69,1.7-.8,2.55-1.79.64-.73.52-.96,1.4-2.17.97-1.32,1.22-1.2,1.79-2.17.62-1.06.35-1.26,1.02-2.55.66-1.28.98-1.19,1.53-2.3.74-1.5.3-1.96.89-3.06.46-.86,1.33-1.39,3.06-2.43,2.59-1.55,2.8-2.17,4.09-2.68l.94-.45Z"/><path class="cls-2" d="M22.9,37.04c-.03-2.02-.04-3.02,0-3.23.41-1.97,2.02-3.19,2.64-3.66.73-.55,1.99-.99,4.51-1.87,2.05-.72,1.61-.46,4-1.28,1.39-.48,2-.72,3.06-.85.7-.09,1.52-.19,2.55,0,1.61.29,1.91.96,3.06.85.49-.05.43-.17,1.87-.77.88-.37,1.91-.79,3.06-1.02,1.12-.22,1.43-.07,2.47-.17,1.91-.18,1.85-.79,4-1.28,2.25-.51,2.71,0,4-.77.64-.38,1.16-.88,1.53-.68.3.15.28.62.34,1.36.06.67.03-.2.68,3.49.29,1.63.33,2.03.34,2.55.01.67.02,1.15-.17,1.7-.35,1.04-1.16,1.63-1.62,1.96-3.65,2.61-5.47,3.91-6.55,4.34-6.29,2.49-8.47-.68-12.09,1.79-1.18.81-.33.72-5.36,7.23-2.47,3.19-3.18,3.87-4.09,4.51-2.22,1.57-3.52,1.46-4.09,2.81-.65,1.54.75,2.37.85,5.45.03.85.1,2.86-.94,4.77-1.45,2.67-3.52,2.34-4.26,4.77-.54,1.8.12,3.6.17,3.74.38.99.7.97,1.19,2.04.31.68,1.25,2.74.43,4.43-.32.65-1.35,1.23-3.4,2.38-1.63.91-2.21,1.05-2.72.85-.34-.14-.41-.33-1.19-1.36,0,0-.84-1.11-1.79-2.21-1.21-1.4-1.28-1.12-1.87-1.96-.92-1.29-1.18-2.56-1.28-3.06-.14-.7-.3-1.53-.09-2.55.13-.64.46-1.25,1.11-2.47.76-1.43.86-1.37,1.11-2.04.42-1.15.43-2.15.43-2.64,0-.43,0-1.15-.26-2.04-.27-.95-.49-.94-.85-2.13-.22-.72-.21-.98-.51-1.45-.19-.29-.51-.8-1.11-.94-.5-.11-.93.09-1.11.17-.38.18-.45.35-.94.77-.49.42-.82.7-1.28.85-.7.23-1.33.03-1.7-.09-.47-.15-1.31-.41-1.62-1.11-.23-.52.08-.74,0-1.7-.01-.14-.15-1.59-.68-1.7-.29-.06-.45.31-1.45,1.19-.58.51-.87.76-1.19.85-1.01.28-2.19-.5-2.13-.77.04-.19.66.03,1.45-.34.66-.31,1.01-.83,1.53-1.62.94-1.42.85-1.99,1.36-2.13.65-.18,1.56.53,1.96,1.28.42.79.05,1.18.51,1.96.08.13.59.98,1.62,1.19.74.16,1.61-.04,2.13-.6.44-.47.34-.9.6-1.87.1-.38.47-1.62,1.36-2.72.28-.34,1.31-1.58,2.98-2.04.78-.22.91-.05,1.53-.34.44-.21.59-.39,1.96-1.7.84-.8,1.05-.98,1.19-1.11.86-.73.96-.69,1.28-1.02.63-.65.8-1.38,1.11-2.72.25-1.08.3-1.93.34-2.64.04-.77.02-1.13,0-2.64Z"/><path class="cls-2" d="M58.21,38.91c.31.61,1.23,1.14,3.06,2.21,1.21.71,2.2,1.19,2.72,1.45,2.07,1,3.11,1.5,4,1.7,1.9.44,3.67.2,5.87-.09.64-.08,1.74-.25,3.23-.17,1.09.06,1.72.22,2.3.51.53.27,1.33.67,1.62,1.53.02.06.3.96-.17,1.79-.6,1.05-1.71.75-2.3,1.79-.26.46-.26.91-.26,1.79,0,.87,0,1.43.34,1.96.1.15.43.63,2.3,1.28.49.17.97.31,2.13.6,2.59.63,3.02.61,3.4,1.11.53.68.42,1.59.34,2.21-.04.33-.2,1.52-1.11,2.47-1.11,1.15-2.06.62-3.91,1.87-.75.5-1.45.97-1.79,1.87-.46,1.24.02,2.63.68,3.49.27.35.51.53,2.64,1.7,2.5,1.37,2.86,1.5,3.32,2.13.65.9.85,1.95.94,2.38.07.39.19,1.04.09,1.87-.06.44-.18,1.43-.85,2.3-.38.49-.59.5-2.38,1.7-1.46.98-1.6,1.16-1.7,1.36-.59,1.16.13,2.64.26,2.89.68,1.39,1.57,1.37,1.7,2.38.13,1.05-.7,2.09-.94,2.38-.57.71-.9.66-1.22,1.28-.42.83-.23,1.71-.15,2.12.26,1.21,1.01,1.98,1.36,2.3-.01-.31,0-.75.09-1.28.13-.76.3-1.74.94-2.3.84-.75,1.62.03,3.15-.68.95-.44,1.52-1.14,1.79-1.53.28-.41.81-1.19.77-2.13-.07-1.44-1.4-1.61-1.79-3.32-.04-.19-.31-1.47.34-2.64.5-.89,1.34-1.36,2.55-2.04.12-.07.81-.45,1.7-.94.75-.41.96-.51,1.19-.77.54-.59.64-1.32.68-1.7.14-1.21-.3-2.16-.77-3.15-.76-1.59-1.17-1.57-1.7-2.98-.32-.84-.6-1.6-.43-2.55.22-1.2,1-1.96,1.28-2.21.98-.92,1.54-.61,2.55-1.36,1.51-1.12,1.87-2.99,1.96-3.45.1-.51.4-2.21-.51-3.83-.48-.86-1.13-1.34-2.43-2.3-.58-.43-.77-.51-3.19-2.04-1.55-.98-1.93-1.23-2.17-1.79-.07-.16-.28-.69,0-2.43.31-1.92.7-2.11.77-3.06.16-2.22-1.72-4.03-2.04-4.34-1.38-1.33-2.98-1.7-4.47-2.04-.7-.16-1.74-.28-3.83-.51-.99-.11-1.65-.18-2.55-.26-3.1-.25-3.56-.03-5.23-.38-1.19-.25-2.11-.6-2.55-.77-1.2-.46-1.76-.82-2.94-1.4-1.64-.81-2.05-.78-3.57-1.53-1.31-.65-1.22-.89-1.72-.93-1.29-.09-2.36,1.5-2.62,1.88-.18.27-1.75,2.67-.77,4.57Z"/><path class="cls-2" d="M27.48,90.4c.41-.88.68-1.65.85-2.21.29-.96.44-1.46.34-2.04-.09-.56-.35-.95-.85-1.7-.89-1.33-1.29-1.33-1.36-1.87-.12-.99,1.09-1.94,1.87-2.55,1.39-1.09,1.97-.85,2.55-1.7.63-.91.76-2.33.17-3.23-.45-.69-.93-.49-2.21-1.53-.66-.53-1.2-.97-1.53-1.7-.57-1.26-.16-2.56,0-3.06.32-1.01.95-1.76,2.21-3.23,1.64-1.92,2.09-2.06,2.21-2.89.11-.72-.15-1.45-.68-2.89-.55-1.5-.78-1.51-.85-2.21-.1-1.09.33-2.5,1.36-3.23.76-.54,1.7-.53,3.57-.51,1.39.01,1.61.19,2.38,0,.33-.08,1.67-.41,2.38-1.53.22-.35.3-.64.51-3.06.2-2.25.16-2.37.34-2.72.69-1.35,2.36-1.81,3.23-2.04,1.44-.39,2.17-.2,4.26-.17,2.85.04,4.66.07,6.64-.68.92-.35,2.62-1.01,3.91-2.72,1-1.32.25-1.54,1.53-5.45.48-1.47.93-2.52.39-3.3-.25-.36-.75-.7-1.21-.64-.51.07-.73.6-1.09,1.02-.77.92-1.73.83-3.13,1.28-2.55.81-2.39,2.04-4.53,2.62-.49.13-1.63.05-3.89-.13-3.81-.29-4.92-.57-6.51.06-.55.22-.3.21-1.79.96-1.91.97-3.7,1.72-3.7,1.72-1.55.66-1.74.66-2.04,1.02-.34.4-.32.66-.77,2.87-.35,1.74-.45,2.01-.26,2.43.37.82,1.17.77,1.34,1.47.17.7-.44,1.55-1.09,1.98-.9.6-1.55.18-3.38.32-1.33.1-2.82.22-3.89,1.21-.65.61-.92,1.43-1.47,3.06-.4,1.2-.59,1.79-.51,2.62.03.26.18,1.71,1.28,2.68.69.61,1.08.43,1.34.89.56.99-.71,2.71-1.34,3.57-.76,1.03-.96.99-2.81,2.94-1.89,1.98-2.31,2.68-2.55,3.51-.11.38-.16.93-.26,2.04-.19,2.17.02,2.85.26,3.32.09.18.29.58.7.96,1.14,1.07,2.31.53,3.06,1.47.46.57.45,1.31.45,1.6-.02,1.05-.62,1.2-.77,2.3-.13,1,.25,1.84.51,2.43.19.41.51,1.11,1.21,1.72.51.44.68.38,1.21.83.54.46.81.92,1.21,1.6.35.6.79,1.45,1.16,2.55Z"/></svg>