<?xml version="1.0" encoding="UTF-8"?><svg id="Layer_1" xmlns="http://www.w3.org/2000/svg" viewBox="0 0 115.12 74.11"><defs><style>.cls-1{fill:#6b8d48;}.cls-2{fill:#7cb342;}</style></defs><path class="cls-1" d="M1.67,13.4c2.44-2.23,5.65-3.61,8.95-4.16,3.32-.56,6.74-.36,10.01.44,6.57,1.63,12.25,5.31,17.65,9.02-5.78-3.14-11.56-6.46-17.9-8.03-3.15-.77-6.43-1.05-9.65-.67-3.22.37-6.4,1.44-9.06,3.4Z"/><path class="cls-2" d="M113.76,31.9c-8.56,3.08-17.68,4.69-26.81,4.8-.28-.22-.47-.34-.53-.33-1.83-1.73-3.71-3.25-5.65-4.65,6.2-9.49,11.53-19.48,15.88-29.85-9.39,8.26-17.22,17.05-28.53,22.31-.64-.34-1.28-.67-1.94-1.01-7.45-3.87-17.13-5.29-24.98-2.3-5.63-3.45-15.56-9.12-21.97-10.69-6.41-1.58-13.71-.95-18.83,3.22-1.45,5.2,1.27,14.63,4.35,19.06,2.5,3.6,6.2,6.2,9.04,9.54,1.58,1.86,7.65,10.98,5.56,21.53-.5,2.54-1.36,4.52-1.98,5.75,24.11,11.59,41.39-.46,58.77-7.41,0,0,17.95-7.01,19.3-14.83,0-.02.02-.52,0-1.07,6.11-4.69,12.21-9.38,18.32-14.07ZM55.68,42.71c-4.32,1.3-9.33-.37-12.13-3.91s-3.29-8.71-1.33-12.77l-.11.28c4.2-2.31,8.91-4.69,13.58-3.58,4.39,1.05,7.7,5.41,7.66,9.92-.04,4.51-3.34,8.76-7.66,10.06Z"/><path class="cls-1" d="M42.22,26.03c-1.15,2.61-1.32,5.57-.6,8.27.72,2.7,2.41,5.11,4.76,6.57,2.32,1.47,5.18,2.12,7.87,1.67,2.69-.42,5.12-2.06,6.68-4.28,1.59-2.2,2.3-5.06,1.68-7.71-.58-2.65-2.3-5.06-4.64-6.48-2.35-1.45-5.31-1.61-8.02-.95-2.75.63-5.32,1.91-7.84,3.19,2.45-1.43,4.95-2.85,7.73-3.63,2.74-.8,5.92-.78,8.52.72,2.58,1.46,4.5,4.02,5.19,6.93.73,2.92-.05,6.11-1.79,8.51-1.7,2.43-4.4,4.21-7.37,4.64-2.95.45-6.01-.33-8.44-1.98-1.22-.82-2.27-1.89-3.09-3.1-.81-1.22-1.36-2.59-1.69-4-.63-2.83-.27-5.84,1.03-8.37Z"/><path class="cls-2" d="M58.26,31.35c1.33-.56,3.05.6,3.03,2.04s-1.78,2.55-3.09,1.95-1.62-2.65-.55-3.61l.61-.38Z"/><path class="cls-1" d="M58.26,31.35c.95-.59,2.37-.19,3.07.83.36.51.51,1.22.32,1.87-.19.64-.62,1.17-1.16,1.51-.54.34-1.2.51-1.86.4-.67-.11-1.25-.55-1.55-1.1-.62-1.07-.37-2.53.57-3.14-.68.86-.48,2.03.07,2.71.55.71,1.5.73,2.23.26.74-.46,1.13-1.32.72-2.13-.37-.79-1.35-1.47-2.42-1.23Z"/><path class="cls-1" d="M12.47,25.44c.87,1.54,2.24,2.76,3.84,3.47,1.6.71,3.35,1.01,5.1,1.02,1.74-.01,3.48-.3,5.14-.84,1.65-.53,3.21-1.37,4.73-2.24,3.04-1.76,5.9-3.89,9.11-5.54,3.19-1.7,6.81-2.59,10.41-2.73,7.26-.21,14.34,2.34,20.3,6.23,6.02,3.88,11.1,8.89,16.11,13.87-5.24-4.73-10.49-9.55-16.51-13.22-5.95-3.7-12.86-6.07-19.85-5.86-3.48.14-6.91.96-10.02,2.56-3.13,1.55-6.03,3.63-9.16,5.35-1.57.85-3.18,1.66-4.92,2.16-1.73.5-3.54.74-5.33.69-1.79-.07-3.58-.45-5.19-1.25-1.6-.8-2.94-2.11-3.73-3.69Z"/><path class="cls-1" d="M25.29,56.94c-.12,1.57.85,2.99,2.12,3.78,1.26.83,2.81,1.2,4.29,1.11,1.48-.1,2.91-.74,4.21-1.48,1.31-.76,2.53-1.69,3.78-2.59,2.46-1.9,5.34-3.29,8.28-4.34,2.98-.99,6.08-1.49,9.17-1.83,6.21-.55,12.4-.22,18.54-.31,3.08-.02,6.14-.21,9.18-.62,3.05-.39,6.01-1.23,8.89-2.32-2.81,1.25-5.76,2.24-8.82,2.76-3.05.54-6.14.84-9.23.94-6.18.26-12.36.02-18.47.56-3.04.33-6.07.8-8.97,1.72-2.87.98-5.64,2.25-8.13,4.05-1.27.87-2.54,1.77-3.92,2.51-1.38.72-2.88,1.34-4.49,1.38-1.59.03-3.17-.44-4.45-1.36-.63-.46-1.19-1.04-1.55-1.73-.37-.69-.52-1.48-.43-2.25Z"/><path class="cls-1" d="M23.05,71.35c3.31.68,6.66,1.1,10.03,1.17,3.37.02,6.73-.18,10.06-.67,6.67-.98,13.19-2.8,19.57-4.99,3.2-1.09,6.37-2.26,9.53-3.47,3.16-1.22,6.33-2.41,9.43-3.73,3.08-1.35,6.11-2.86,8.79-4.89,2.7-1.98,4.95-4.62,6.26-7.74-1.14,3.18-3.31,5.98-5.98,8.09-2.64,2.16-5.67,3.79-8.75,5.23-3.1,1.42-6.24,2.66-9.39,3.92-3.15,1.25-6.33,2.45-9.55,3.54-6.42,2.2-13.04,3.96-19.8,4.78-3.38.41-6.79.5-10.18.35-3.39-.2-6.74-.77-10.01-1.61Z"/><path class="cls-1" d="M3.4,17c-.99,4.24-.44,8.76,1.42,12.6,1.83,3.91,5.28,6.67,8.41,9.72,3.22,3.02,5.69,6.94,6.96,11.18,1.28,4.24,1.44,8.79.43,13.02.68-4.3.25-8.73-1.16-12.79-1.41-4.08-3.8-7.73-6.95-10.69-1.54-1.52-3.18-2.98-4.68-4.61-1.51-1.62-2.82-3.48-3.71-5.52-1.78-4.08-2.05-8.77-.73-12.92Z"/><path class="cls-1" d="M85.56,36.98c8.15-.16,16.24-1.53,23.95-4.07.81-.26,1.96-.67,2.89-1.01l1.4-.49.7-.24.35-.12.17-.06s.18-.08.08,0l-4.67,3.73-4.83,3.77c-3.23,2.49-6.49,4.95-9.77,7.37,3.06-2.69,6.16-5.34,9.29-7.97l4.71-3.92c.14-.12.07-.06.1-.08h.01s.01-.03.01-.03c0,0,0,0,0,0l-.04.02h0s-.06.02-.06.02c-7.82,2.58-16.13,3.62-24.26,3.1Z"/><path class="cls-1" d="M71.66,21.73c4.84-2.29,9.11-5.55,13.04-9.14,3.94-3.59,7.63-7.47,11.61-11.1l1.64-1.49-.82,2.06c-3.91,9.86-8.94,19.28-14.93,27.95,5.42-9.04,10.1-18.53,13.98-28.33l.82.57c-3.94,3.6-7.7,7.43-11.79,10.92-4.07,3.49-8.57,6.58-13.55,8.56Z"/></svg>